<?xml version="1.0" standalone="no"?>
<!DOCTYPE svg PUBLIC "-//W3C//DTD SVG 20010904//EN"
 "http://www.w3.org/TR/2001/REC-SVG-20010904/DTD/svg10.dtd">
<svg version="1.0" xmlns="http://www.w3.org/2000/svg"
 width="512.000000pt" height="512.000000pt" viewBox="0 0 512.000000 512.000000"
 preserveAspectRatio="xMidYMid meet">
<metadata>
Created by potrace 1.14, written by Peter Selinger 2001-2017
</metadata>
<g transform="translate(0.000000,512.000000) scale(0.100000,-0.100000)"
fill="#000000" stroke="none">
<path d="M869 4411 c-1 -3 -2 -17 -4 -31 -3 -29 -14 -88 -20 -110 -5 -18 -16
-84 -20 -120 -1 -14 -10 -63 -18 -110 -9 -47 -19 -105 -22 -130 -3 -25 -7 -52
-10 -60 -2 -8 -6 -31 -9 -50 -3 -19 -8 -46 -10 -60 -7 -38 -67 -391 -71 -420
-2 -14 -6 -34 -8 -45 -5 -21 -28 -164 -32 -201 -2 -11 -8 -45 -14 -75 -11 -55
-14 -76 -28 -158 -4 -25 -8 -48 -8 -51 -1 -3 -5 -27 -10 -55 -4 -27 -9 -59
-12 -70 -2 -11 -6 -38 -9 -60 -3 -22 -9 -56 -14 -75 -5 -19 -11 -55 -14 -80
-6 -44 -14 -95 -35 -210 -5 -30 -12 -73 -15 -95 -3 -22 -10 -65 -16 -95 -6
-30 -13 -68 -15 -85 -8 -50 -45 -265 -60 -350 -8 -44 -17 -95 -20 -112 -13
-84 -16 -100 -20 -123 -3 -14 -7 -41 -10 -60 -3 -19 -7 -46 -10 -60 -3 -14 -7
-38 -9 -55 -7 -39 -55 -322 -61 -355 -6 -30 -15 -98 -18 -125 -2 -19 6 -20
476 -21 428 0 477 1 478 15 1 21 4 47 23 161 8 52 17 115 20 140 10 81 16 124
27 190 6 36 13 80 15 99 4 38 12 92 19 131 4 24 6 36 20 145 8 63 12 84 24
165 6 36 13 83 16 105 3 22 7 54 10 70 3 17 7 48 10 70 3 22 8 51 10 65 3 14
9 59 15 100 10 81 21 154 24 173 4 18 15 96 20 142 4 34 13 91 31 205 2 14 6
45 9 70 8 63 11 79 17 84 5 6 34 -64 214 -519 59 -148 113 -283 120 -300 10
-23 145 -364 188 -475 3 -8 22 -53 41 -100 l34 -85 455 -3 454 -2 14 32 c22
56 99 241 114 273 7 17 23 55 35 85 12 30 28 69 35 85 7 17 46 109 86 205 82
199 187 452 231 555 16 39 33 79 37 90 5 11 21 48 35 81 14 34 26 67 26 73 0
22 20 11 21 -11 0 -13 2 -32 4 -43 2 -11 7 -49 10 -85 4 -36 8 -72 10 -80 3
-8 7 -42 11 -74 3 -33 7 -68 9 -78 2 -11 7 -49 10 -86 3 -37 8 -74 10 -82 2
-8 7 -42 11 -75 3 -33 8 -68 10 -78 2 -10 8 -62 14 -116 6 -53 12 -108 15
-121 5 -30 22 -166 30 -232 5 -48 12 -99 20 -153 4 -29 10 -74 20 -165 7 -60
14 -117 20 -160 6 -44 17 -127 20 -160 6 -57 27 -208 40 -295 l5 -30 478 0
477 0 -3 35 c-1 19 -9 76 -17 125 -8 50 -17 108 -20 130 -6 47 -25 169 -31
205 -2 14 -11 72 -20 130 -8 58 -17 116 -19 130 -4 23 -10 60 -20 130 -2 14
-7 48 -11 75 -3 28 -8 59 -11 70 -2 11 -8 55 -14 98 -5 43 -14 101 -19 127 -5
27 -12 71 -15 97 -4 26 -15 102 -25 168 -11 66 -24 156 -31 200 -6 44 -13 89
-15 100 -3 18 -9 55 -20 135 -3 19 -11 73 -19 120 -8 47 -16 108 -20 135 -3
28 -10 75 -15 105 -5 30 -12 71 -15 90 -7 48 -33 225 -50 335 -7 50 -16 110
-20 135 -3 25 -8 52 -10 60 -2 8 -6 38 -10 65 -10 79 -20 149 -35 235 -5 30
-12 75 -15 100 -6 45 -8 60 -25 160 -5 30 -12 75 -15 100 -3 25 -8 61 -11 80
l-5 35 -477 1 -477 0 -17 -40 c-18 -44 -110 -273 -138 -346 -10 -25 -75 -187
-145 -360 -70 -173 -135 -335 -145 -360 -60 -157 -344 -857 -350 -864 -5 -4
-11 3 -15 15 -4 13 -29 80 -55 149 -27 69 -112 294 -190 500 -78 206 -153 402
-165 435 -13 33 -74 193 -135 355 -107 284 -172 453 -189 495 -8 20 -18 20
-480 21 -259 0 -471 -2 -472 -5z"/>
<path d="M2046 1105 c-84 -29 -137 -104 -138 -195 0 -80 45 -145 132 -191 26
-13 120 -20 120 -8 0 4 11 10 24 13 36 9 84 53 107 99 50 97 8 221 -92 272
-38 20 -110 24 -153 10z"/>
<path d="M2958 1108 c-77 -20 -148 -113 -148 -196 0 -83 64 -169 147 -196 53
-17 81 -16 133 7 82 35 124 101 124 194 0 54 -4 69 -30 105 -52 75 -139 107
-226 86z"/>
</g>
</svg>
