<?xml version="1.0" encoding="UTF-8"?>
<svg id="Layer_2" data-name="Layer 2" xmlns="http://www.w3.org/2000/svg" viewBox="0 0 829 247.46">
  <defs>
    <style>
      .cls-1 {
        fill: #fff;
        stroke-width: 0px;
      }
    </style>
  </defs>
  <g id="Layer_1-2" data-name="Layer 1">
    <g>
      <g>
        <path class="cls-1" d="m0,188.69h10.26c8.3,0,14.86,1.36,21.12,7.17,5.96,5.58,9.05,13.2,9.05,21.35s-3.02,15.31-8.75,20.82c-6.26,6.04-12.98,7.54-21.43,7.54H0v-56.88Zm10.18,53.49c7.47,0,13.65-1.51,19.09-6.86,4.83-4.83,7.54-11.32,7.54-18.11,0-7.24-2.87-14.03-8.22-18.94-5.43-4.9-11.32-6.19-18.41-6.19H3.62v50.09h6.56Z"/>
        <path class="cls-1" d="m52.81,192.09v20.67h22.93v3.39h-22.93v26.03h23.54v3.4h-27.16v-56.88h27.16v3.39h-23.54Z"/>
        <path class="cls-1" d="m113.76,198.05c-2.57-4.07-6.19-6.71-11.54-6.71-6.11,0-10.71,4.9-10.71,10.86s5.66,8.45,10.26,10.64l10.86,5.66c4.3,2.72,6.49,6.19,6.49,11.32,0,9.43-8.6,16.52-17.8,16.52-7.92,0-14.11-4.9-16.75-12.22l3.17-1.43c2.41,6.04,6.86,10.26,13.73,10.26,7.47,0,14.03-5.88,14.03-13.43,0-6.41-6.56-9.13-11.47-11.54l-10.26-5.43c-3.77-2.34-5.88-5.66-5.88-10.18,0-8.45,6.04-14.41,14.56-14.41,5.73,0,11.16,3.09,13.88,8l-2.56,2.11Z"/>
        <path class="cls-1" d="m132.09,245.58h-3.62v-56.88h3.62v56.88Z"/>
        <path class="cls-1" d="m197.65,218.19c.15,7.17-.9,13.43-5.96,18.94-5.43,5.88-13.58,9.2-21.58,9.2-15.77,0-29.2-13.28-29.2-28.97s13.35-29.42,29.65-29.42c10.34,0,18.71,5.13,24.67,13.28l-2.94,2.34c-5.06-7.54-12.75-12.22-21.95-12.22-13.88,0-25.8,12.15-25.8,25.8s11.62,25.8,25.8,25.8c6.11,0,12.07-2.49,16.75-6.26,4.9-4.15,6.71-8.9,6.94-15.09h-20.37v-3.39h23.99Z"/>
        <path class="cls-1" d="m257.85,247.46l-47.75-50.77v48.89h-3.62v-57.64l47.75,50.39v-49.64h3.62v58.77Z"/>
        <path class="cls-1" d="m324.84,236.15c-6.34,5.36-13.58,10.56-20.97,10.56-8.37,0-14.86-6.79-14.86-15.01,0-9.96,9.51-15.77,17.28-20.67-2.64-3.7-5.96-7.54-5.96-12.45,0-6.04,5.13-10.94,11.09-10.94s10.34,4.75,10.34,10.56c0,6.49-5.13,10.26-10.64,14.03l14.03,19.16,7.24-7.92,2.79,1.51-7.92,9.05,8.68,11.54h-3.92l-7.17-9.43Zm-20.07-19.84c-5.43,3.47-12.15,7.85-12.15,15.01,0,6.41,4.6,11.99,11.24,11.99s13.58-5.66,18.86-10.03l-14.34-19.39-3.62,2.41Zm-.83-17.35c0,4.07,3.02,7.09,5.06,10.49,4-3.17,9.13-5.58,9.13-11.32,0-3.85-3.02-7.09-6.94-7.09-4.15,0-7.24,3.92-7.24,7.92Z"/>
        <path class="cls-1" d="m410.46,200.31c-4.37-5.36-12.07-8.98-19.09-8.98-14.18,0-25.88,12.22-25.88,26.18,0,6.64,2.87,12.9,7.62,17.58,4.75,4.53,11.54,7.85,18.26,7.85s14.86-3.55,19.09-8.68v4.98c-5.35,4.45-11.92,7.09-18.93,7.09-15.84,0-29.65-13.2-29.65-29.12s13.58-29.27,29.72-29.27c6.86,0,13.81,2.72,18.86,7.39v4.98Z"/>
        <path class="cls-1" d="m476.62,217.13c0,15.99-13.5,29.2-29.5,29.2s-29.5-13.2-29.5-29.2,13.43-29.2,29.5-29.2,29.5,13.2,29.5,29.2Zm-55.37,0c0,14.03,11.69,25.8,25.88,25.8s25.88-11.84,25.88-25.8-11.77-25.8-25.88-25.8-25.88,11.77-25.88,25.8Z"/>
        <path class="cls-1" d="m536.82,247.46l-47.75-50.77v48.89h-3.62v-57.64l47.75,50.39v-49.64h3.62v58.77Z"/>
        <path class="cls-1" d="m575.36,198.05c-2.57-4.07-6.19-6.71-11.54-6.71-6.11,0-10.71,4.9-10.71,10.86s5.66,8.45,10.26,10.64l10.86,5.66c4.3,2.72,6.49,6.19,6.49,11.32,0,9.43-8.6,16.52-17.8,16.52-7.92,0-14.11-4.9-16.75-12.22l3.17-1.43c2.41,6.04,6.87,10.26,13.73,10.26,7.47,0,14.03-5.88,14.03-13.43,0-6.41-6.56-9.13-11.47-11.54l-10.26-5.43c-3.77-2.34-5.88-5.66-5.88-10.18,0-8.45,6.04-14.41,14.56-14.41,5.73,0,11.16,3.09,13.88,8l-2.57,2.11Z"/>
        <path class="cls-1" d="m624.55,188.69h3.62v35.46c0,5.81,0,10.79-3.85,15.54-3.85,4.38-9.73,6.64-15.46,6.64s-11.62-2.26-15.47-6.64c-3.85-4.75-3.85-9.73-3.85-15.54v-35.46h3.62v34.4c0,5.13,0,10.56,2.94,14.33,2.79,3.62,8.37,5.51,12.75,5.51s9.96-1.89,12.75-5.51c2.94-3.77,2.94-9.2,2.94-14.33v-34.4Z"/>
        <path class="cls-1" d="m643.48,242.18h14.48v3.4h-18.11v-56.88h3.62v53.49Z"/>
        <path class="cls-1" d="m674.94,245.58h-3.62v-53.49h-14.71v-3.39h33.04v3.39h-14.71v53.49Z"/>
        <path class="cls-1" d="m699.84,245.58h-3.62v-56.88h3.62v56.88Z"/>
        <path class="cls-1" d="m763.43,247.46l-47.75-50.77v48.89h-3.62v-57.64l47.75,50.39v-49.64h3.62v58.77Z"/>
        <path class="cls-1" d="m828.99,218.19c.15,7.17-.9,13.43-5.96,18.94-5.43,5.88-13.58,9.2-21.58,9.2-15.77,0-29.2-13.28-29.2-28.97s13.35-29.42,29.65-29.42c10.34,0,18.71,5.13,24.67,13.28l-2.94,2.34c-5.05-7.54-12.75-12.22-21.95-12.22-13.88,0-25.8,12.15-25.8,25.8s11.62,25.8,25.8,25.8c6.11,0,12.07-2.49,16.75-6.26,4.9-4.15,6.71-8.9,6.94-15.09h-20.37v-3.39h23.99Z"/>
      </g>
      <g>
        <path class="cls-1" d="m41.11,127.54h49.29v34.82H0V4.19h41.11v123.34Z"/>
        <path class="cls-1" d="m147.61,134.88l-10.91,27.48h-43.63L153.9,4.19h44.89l59.57,158.16h-43.84l-10.28-27.48h-56.64Zm28.74-81.81h-.42l-16.99,50.34h34.19l-16.78-50.34Z"/>
        <path class="cls-1" d="m576.44,57.27c-8.39-11.33-22.03-17.41-36.08-17.41-25.17,0-42.16,19.3-42.16,43.84s17.2,43,42.79,43c13.42,0,26.85-6.5,35.45-16.78v49.29c-13.63,4.19-23.49,7.34-36.29,7.34-22.03,0-43-8.39-59.36-23.28-17.41-15.73-25.38-36.29-25.38-59.78,0-21.61,8.18-42.37,23.28-57.9,15.52-15.94,37.97-25.59,60.2-25.59,13.21,0,25.38,2.94,37.55,7.97v49.29Z"/>
        <path class="cls-1" d="m635.11,134.88l-10.91,27.48h-43.63L641.4,4.19h44.89l59.57,158.16h-43.84l-10.28-27.48h-56.64Zm28.74-81.81h-.42l-16.99,50.34h34.19l-16.78-50.34Z"/>
        <path class="cls-1" d="m795.02,162.36h-41.11V39.01h-33.98V4.19h109.08v34.82h-33.98v123.34Z"/>
        <polygon class="cls-1" points="455.79 134.88 451.04 103.41 436.03 4.19 395.13 4.19 361.15 88.73 329.06 4.19 288.57 4.19 271.73 103.41 266.39 134.88 261.72 162.36 302.62 162.36 306.61 134.88 311.18 103.41 315.84 71.32 316.26 71.32 329.05 103.41 341.6 134.88 380.37 134.88 393.49 103.41 406.88 71.32 407.3 71.32 411.36 103.41 415.35 134.88 418.83 162.36 459.95 162.36 455.79 134.88"/>
        <circle class="cls-1" cx="341.6" cy="153.65" r="8.71"/>
        <circle class="cls-1" cx="380.26" cy="153.65" r="8.71"/>
      </g>
    </g>
  </g>
</svg>